<?xml version="1.0" encoding="UTF-8"?>
<svg id="Layer_2" data-name="Layer 2" xmlns="http://www.w3.org/2000/svg" viewBox="0 0 67.18 14.51">
  <defs>
    <style>
      .cls-1 {
        fill: #fff;
      }

      .cls-2 {
        fill: #ffd28e;
      }
    </style>
  </defs>
  <g id="objack">
    <g>
      <path class="cls-1" d="m67.18,11.8s-.81-.11-.89-.12c-.29-.04-.58-.09-.87-.14-.55-.09-1.1-.2-1.65-.31-.52-.11-1.03-.23-1.54-.36-.48-.12-.96-.26-1.44-.4s-.9-.28-1.35-.44-.85-.31-1.27-.47-.8-.33-1.2-.5-.76-.34-1.13-.52-.72-.36-1.08-.54-.69-.37-1.04-.56-.67-.38-1-.57-.65-.38-.98-.58-.64-.38-.96-.58-.63-.38-.95-.57-.63-.38-.95-.57-.64-.37-.96-.55-.65-.36-.98-.54-.67-.35-1.01-.52-.7-.33-1.05-.49-.73-.31-1.1-.46-.77-.29-1.15-.43-.81-.27-1.22-.39-.86-.24-1.29-.34c-.46-.11-.92-.21-1.38-.29-.49-.09-.98-.17-1.47-.24-.52-.07-1.05-.13-1.57-.18-.56-.05-1.12-.09-1.68-.12-.59-.03-1.19.01-1.78.06-.54.04-1.08.09-1.62.15-.51.06-1.01.13-1.52.21-.48.08-.95.17-1.42.27-.45.1-.89.2-1.33.32s-.84.23-1.25.37-.79.26-1.18.41-.75.29-1.12.44-.72.31-1.07.48-.69.33-1.03.5-.67.35-.99.53-.65.36-.97.55-.64.37-.96.56-.63.38-.95.57-.64.38-.95.58-.64.39-.97.58-.66.38-.99.57-.68.38-1.02.56-.7.37-1.06.55-.74.36-1.11.53-.77.35-1.17.51-.82.33-1.23.49-.87.31-1.31.46c-.46.15-.93.29-1.39.42-.49.14-.99.26-1.49.38-.53.12-1.06.24-1.59.34-.57.11-1.14.2-1.71.29-.29.04-.57.08-.86.12v2.71h67.18v-2.71Z"/>
      <circle class="cls-2" cx="33.59" cy="6.09" r="3.36"/>
    </g>
  </g>
</svg>